<svg xmlns="http://www.w3.org/2000/svg" width="968" height="587" viewBox="0 0 968 587"><defs><style type="text/css"/></defs><g transform="translate(7948.192445254786 2300.7150204799027) scale(1)"><g class="relationship"><g transform="translate(-7826.495179629786 -2017.065275366402) rotate(-25.423575834531558)" stroke-width="5" stroke="#00FFFF"><path d="M 58 0 L 315.5702664406143 0"/><polygon points="-24.8621506177483,0 -27.62461179749811,9.20820393249937 0,0 -27.62461179749811,-9.20820393249937" fill="#00FFFF" transform="translate(340.4324170583626 0) rotate(0)" stroke="none"/></g><g transform="translate(-7657.798557812385 -2097.2534027888873) rotate(-25.423575834531558) translate(0 -22.6)"><g transform="translate(0 0)"><g transform="translate(-44.55078125 0)" fill="#ffffff" stroke="#000000" stroke-width="0"><rect x="0" y="0" width="89.1015625" height="26" rx="5" ry="5" stroke="none"/><text xml:space="preserve" x="5" y="17.5" stroke="none" text-anchor="left" font-family="sans-serif" font-size="16" font-weight="normal" fill="#000000">WATCHED</text></g></g><g transform="translate(0 26)"><g transform="translate(-33.3515625 0)" fill="white"><rect x="0" y="0" width="66.703125" height="19.2" rx="0" ry="0" stroke="none"/><g font-family="sans-serif" font-size="16" font-weight="normal" fill="#000000" text-anchor="end"><text xml:space="preserve" x="48.9140625" y="14.1" stroke="none">ratind:</text><text xml:space="preserve" x="53.359375" y="14.1" stroke="none" text-anchor="start">5</text></g></g></g></g></g><g class="relationship"><g transform="translate(-7826.495179629786 -2017.065275366402) rotate(26.01874306055359)" stroke-width="5" stroke="#00FFFF"><path d="M 58 0 L 317.56902239923625 0"/><polygon points="-24.8621506177483,0 -27.62461179749811,9.20820393249937 0,0 -27.62461179749811,-9.20820393249937" fill="#00FFFF" transform="translate(342.43117301698453 0) rotate(0)" stroke="none"/></g><g transform="translate(-7657.742516968179 -1934.6907556949807) rotate(26.01874306055359) translate(0 -22.6)"><g transform="translate(0 0)"><g transform="translate(-44.55078125 0)" fill="#ffffff" stroke="#000000" stroke-width="0"><rect x="0" y="0" width="89.1015625" height="26" rx="5" ry="5" stroke="none"/><text xml:space="preserve" x="5" y="17.5" stroke="none" text-anchor="left" font-family="sans-serif" font-size="16" font-weight="normal" fill="#000000">WATCHED</text></g></g><g transform="translate(0 26)"><g transform="translate(-33.3515625 0)" fill="white"><rect x="0" y="0" width="66.703125" height="19.2" rx="0" ry="0" stroke="none"/><g font-family="sans-serif" font-size="16" font-weight="normal" fill="#000000" text-anchor="end"><text xml:space="preserve" x="48.9140625" y="14.1" stroke="none">ratind:</text><text xml:space="preserve" x="53.359375" y="14.1" stroke="none" text-anchor="start">5</text></g></g></g></g></g><g class="relationship"><g transform="translate(-7466.647467868859 -2188.115020479903) rotate(25.42357583453398)" stroke-width="5" stroke="#FFD700"><path d="M 58 0 L 315.5702664406143 0"/><polygon points="-24.8621506177483,0 -27.62461179749811,9.20820393249937 0,0 -27.62461179749811,-9.20820393249937" fill="#FFD700" transform="translate(340.4324170583626 0) rotate(0)" stroke="none"/></g><g transform="translate(-7297.950846051462 -2107.9268930574103) rotate(25.42357583453398) translate(0 -13)"><g transform="translate(0 0)"><g transform="translate(-45.8984375 0)" fill="#ffffff" stroke="#000000" stroke-width="0"><rect x="0" y="0" width="91.796875" height="26" rx="5" ry="5" stroke="none"/><text xml:space="preserve" x="5" y="17.5" stroke="none" text-anchor="left" font-family="sans-serif" font-size="16" font-weight="normal" fill="#000000">IN_GENRE</text></g></g></g></g><g class="relationship"><g transform="translate(-7466.647467868859 -1841.410077139356) rotate(-26.018743060552087)" stroke-width="5" stroke="#FFD700"><path d="M 58 0 L 317.569022399223 0"/><polygon points="-24.8621506177483,0 -27.62461179749811,9.20820393249937 0,0 -27.62461179749811,-9.20820393249937" fill="#FFD700" transform="translate(342.4311730169713 0) rotate(0)" stroke="none"/></g><g transform="translate(-7297.894805207256 -1923.78459681077) rotate(-26.018743060552087) translate(0 -13)"><g transform="translate(0 0)"><g transform="translate(-45.8984375 0)" fill="#ffffff" stroke="#000000" stroke-width="0"><rect x="0" y="0" width="91.796875" height="26" rx="5" ry="5" stroke="none"/><text xml:space="preserve" x="5" y="17.5" stroke="none" text-anchor="left" font-family="sans-serif" font-size="16" font-weight="normal" fill="#000000">IN_GENRE</text></g></g></g></g><g class="relationship"><g transform="translate(-7466.647467868859 -1841.410077139356) rotate(-0.00001152431751276393)" stroke-width="5" stroke="#109618"><path d="M 58 0 L 301.84771176092727 0"/></g><g transform="translate(-7286.723611988399 -1841.4101133287518) rotate(-0.00001152431751276393) translate(0 -13)"><g transform="translate(0 0)"><g transform="translate(-45.890625 0)" fill="#ffffff" stroke="#000000" stroke-width="0"><rect x="0" y="0" width="91.78125" height="26" rx="5" ry="5" stroke="none"/><text xml:space="preserve" x="5" y="17.5" stroke="none" text-anchor="left" font-family="sans-serif" font-size="16" font-weight="normal" fill="#000000">DIRECTED</text></g></g></g></g><g class="relationship"><g transform="translate(-7826.495179629786 -1841.410077139356) rotate(0)" stroke-width="5" stroke="#8DCC93"><path d="M 58 0 L 301.84771176092727 0"/></g><g transform="translate(-7646.571323749323 -1841.410077139356) rotate(0) translate(0 -32.2)"><g transform="translate(0 0)"><g transform="translate(-44.5625 0)" fill="#ffffff" stroke="#000000" stroke-width="0"><rect x="0" y="0" width="89.125" height="26" rx="5" ry="5" stroke="none"/><text xml:space="preserve" x="5" y="17.5" stroke="none" text-anchor="left" font-family="sans-serif" font-size="16" font-weight="normal" fill="#000000">ACTED_IN</text></g></g><g transform="translate(0 26)"><g transform="translate(-25.33984375 0)" fill="white"><rect x="0" y="0" width="50.6796875" height="38.4" rx="0" ry="0" stroke="none"/><g font-family="sans-serif" font-size="16" font-weight="normal" fill="#000000" text-anchor="end"><text xml:space="preserve" x="41.7890625" y="14.1" stroke="none">role:</text><text xml:space="preserve" x="46.234375" y="14.1" stroke="none" text-anchor="start"></text><text xml:space="preserve" x="41.7890625" y="33.3" stroke="none" text-anchor="end">style:</text><text xml:space="preserve" x="46.234375" y="33.3" stroke="none" text-anchor="start"></text></g></g></g></g></g><g class="relationship"><g transform="translate(-7826.495179629786 -2183.5095541518604) rotate(-0.7332528975677916)" stroke-width="5" stroke="#8DCC93"><path d="M 58 0 L 301.8771817991162 0"/></g><g transform="translate(-7646.571323749323 -2185.812287315882) rotate(-0.7332528975677916) translate(0 -32.2)"><g transform="translate(0 0)"><g transform="translate(-44.5625 0)" fill="#ffffff" stroke="#000000" stroke-width="0"><rect x="0" y="0" width="89.125" height="26" rx="5" ry="5" stroke="none"/><text xml:space="preserve" x="5" y="17.5" stroke="none" text-anchor="left" font-family="sans-serif" font-size="16" font-weight="normal" fill="#000000">ACTED_IN</text></g></g><g transform="translate(0 26)"><g transform="translate(-25.33984375 0)" fill="white"><rect x="0" y="0" width="50.6796875" height="38.4" rx="0" ry="0" stroke="none"/><g font-family="sans-serif" font-size="16" font-weight="normal" fill="#000000" text-anchor="end"><text xml:space="preserve" x="41.7890625" y="14.1" stroke="none">role:</text><text xml:space="preserve" x="46.234375" y="14.1" stroke="none" text-anchor="start"></text><text xml:space="preserve" x="41.7890625" y="33.3" stroke="none" text-anchor="end">style:</text><text xml:space="preserve" x="46.234375" y="33.3" stroke="none" text-anchor="start"></text></g></g></g></g></g><g class="relationship"><g transform="translate(-7466.647467868859 -2188.115020479903) rotate(-0.7332528975677965)" stroke-width="5" stroke="#109618"><path d="M 58 0 L 301.87049342482294 0"/></g><g transform="translate(-7286.7269559016895 -2190.4177108472645) rotate(-0.7332528975677965) translate(0 -13)"><g transform="translate(0 0)"><g transform="translate(-45.890625 0)" fill="#ffffff" stroke="#000000" stroke-width="0"><rect x="0" y="0" width="91.78125" height="26" rx="5" ry="5" stroke="none"/><text xml:space="preserve" x="5" y="17.5" stroke="none" text-anchor="left" font-family="sans-serif" font-size="16" font-weight="normal" fill="#000000">DIRECTED</text></g></g></g></g><g class="node"><g fill="#00FFFF" stroke="#000000" stroke-width="3"><circle cx="-7826.495179629786" cy="-2017.065275366402" r="51.5"/></g><g transform="translate(-7826.495179629786 -2017.065275366402)"><g transform="scale(0.512000468480643) translate(0 -43)"><g transform="translate(0 0)"><g fill="#000000" font-family="sans-serif" font-size="30" font-weight="bold" text-anchor="middle"><text xml:space="preserve" x="0" y="26" stroke="none">Cesar</text></g></g><g transform="translate(0 40)"><g transform="translate(-65.2265625 0)"><g fill="#ffffff" stroke="#000000" stroke-width="2"><rect x="0" y="0" width="130.453125" height="46" rx="23" ry="23"/><text xml:space="preserve" x="23" y="33.5" stroke="none" font-family="sans-serif" font-size="40" font-weight="normal" fill="#000000">User</text></g></g></g></g><g transform="translate(-55 -35.99999999999999)"><g transform="translate(0 0)"><g transform="translate(-66.697265625 0)" fill="white"><rect x="0" y="0" width="66.697265625" height="72" rx="0" ry="0" stroke="none"/><g font-family="sans-serif" font-size="12" font-weight="normal" fill="#000000" text-anchor="end"><text xml:space="preserve" x="60.029296875" y="10.7" stroke="none">name:</text><text xml:space="preserve" x="63.36328125" y="10.7" stroke="none" text-anchor="start"></text><text xml:space="preserve" x="60.029296875" y="25.099999999999998" stroke="none" text-anchor="end">sex:</text><text xml:space="preserve" x="63.36328125" y="25.099999999999998" stroke="none" text-anchor="start"></text><text xml:space="preserve" x="60.029296875" y="39.5" stroke="none" text-anchor="end">born:</text><text xml:space="preserve" x="63.36328125" y="39.5" stroke="none" text-anchor="start"></text><text xml:space="preserve" x="60.029296875" y="53.89999999999999" stroke="none" text-anchor="end">birthPlace:</text><text xml:space="preserve" x="63.36328125" y="53.89999999999999" stroke="none" text-anchor="start"></text><text xml:space="preserve" x="60.029296875" y="68.3" stroke="none" text-anchor="end">region:</text><text xml:space="preserve" x="63.36328125" y="68.3" stroke="none" text-anchor="start"></text></g></g></g></g></g></g><g class="node"><g fill="#E50914" stroke="#000000" stroke-width="3"><circle cx="-7466.647467868859" cy="-2188.115020479903" r="51.5"/></g><g transform="translate(-7466.647467868859 -2188.115020479903)"><g transform="scale(0.3700354130496566) translate(0 -43)"><g transform="translate(0 0)"><g fill="#000000" font-family="sans-serif" font-size="30" font-weight="bold" text-anchor="middle"><text xml:space="preserve" x="0" y="26" stroke="none">Forrest Gump</text></g></g><g transform="translate(0 40)"><g transform="translate(-76.349609375 0)"><g fill="#ffffff" stroke="#000000" stroke-width="2"><rect x="0" y="0" width="152.69921875" height="46" rx="23" ry="23"/><text xml:space="preserve" x="23" y="33.5" stroke="none" font-family="sans-serif" font-size="40" font-weight="normal" fill="#000000">Movie</text></g></g></g></g><g transform="translate(3.3677786976552213e-15 -112.6)"><g transform="translate(0 0)"><g transform="translate(-29.68359375 0)" fill="white"><rect x="0" y="0" width="59.3671875" height="57.599999999999994" rx="0" ry="0" stroke="none"/><g font-family="sans-serif" font-size="12" font-weight="normal" fill="#000000" text-anchor="end"><text xml:space="preserve" x="52.69921875" y="10.7" stroke="none">title:</text><text xml:space="preserve" x="56.033203125" y="10.7" stroke="none" text-anchor="start"></text><text xml:space="preserve" x="52.69921875" y="25.099999999999998" stroke="none" text-anchor="end">released:</text><text xml:space="preserve" x="56.033203125" y="25.099999999999998" stroke="none" text-anchor="start"></text><text xml:space="preserve" x="52.69921875" y="39.5" stroke="none" text-anchor="end">runtime:</text><text xml:space="preserve" x="56.033203125" y="39.5" stroke="none" text-anchor="start"></text><text xml:space="preserve" x="52.69921875" y="53.89999999999999" stroke="none" text-anchor="end">plot:</text><text xml:space="preserve" x="56.033203125" y="53.89999999999999" stroke="none" text-anchor="start"></text></g></g></g></g></g></g><g class="node"><g fill="#DC3912" stroke="#000000" stroke-width="3"><circle cx="-7466.647467868859" cy="-1841.410077139356" r="51.5"/></g><g transform="translate(-7466.647467868859 -1841.410077139356)"><g transform="scale(0.37798481382393095) translate(0 -43)"><g transform="translate(0 0)"><g fill="#000000" font-family="sans-serif" font-size="30" font-weight="bold" text-anchor="middle"><text xml:space="preserve" x="0" y="26" stroke="none">Breaking Bad</text></g></g><g transform="translate(0 40)"><g transform="translate(-69.689453125 0)"><g fill="#ffffff" stroke="#000000" stroke-width="2"><rect x="0" y="0" width="139.37890625" height="46" rx="23" ry="23"/><text xml:space="preserve" x="23" y="33.5" stroke="none" font-family="sans-serif" font-size="40" font-weight="normal" fill="#000000">Serie</text></g></g></g></g><g transform="translate(3.3677786976552213e-15 55)"><g transform="translate(0 0)"><g transform="translate(-41.3583984375 0)" fill="white"><rect x="0" y="0" width="82.716796875" height="72" rx="0" ry="0" stroke="none"/><g font-family="sans-serif" font-size="12" font-weight="normal" fill="#000000" text-anchor="end"><text xml:space="preserve" x="76.048828125" y="10.7" stroke="none">title:</text><text xml:space="preserve" x="79.3828125" y="10.7" stroke="none" text-anchor="start"></text><text xml:space="preserve" x="76.048828125" y="25.099999999999998" stroke="none" text-anchor="end">firstAirDate:</text><text xml:space="preserve" x="79.3828125" y="25.099999999999998" stroke="none" text-anchor="start"></text><text xml:space="preserve" x="76.048828125" y="39.5" stroke="none" text-anchor="end">lastAirDate:</text><text xml:space="preserve" x="79.3828125" y="39.5" stroke="none" text-anchor="start"></text><text xml:space="preserve" x="76.048828125" y="53.89999999999999" stroke="none" text-anchor="end">totalSeasons:</text><text xml:space="preserve" x="79.3828125" y="53.89999999999999" stroke="none" text-anchor="start"></text><text xml:space="preserve" x="76.048828125" y="68.3" stroke="none" text-anchor="end">plot:</text><text xml:space="preserve" x="79.3828125" y="68.3" stroke="none" text-anchor="start"></text></g></g></g></g></g></g><g class="node"><g fill="#FFD700" stroke="#000000" stroke-width="3"><circle cx="-7106.799756107939" cy="-2017.0652753663867" r="51.5"/></g><g transform="translate(-7106.799756107939 -2017.0652753663867)"><g transform="scale(0.4465234248829635) translate(0 -43)"><g transform="translate(0 0)"><g fill="#000000" font-family="sans-serif" font-size="30" font-weight="bold" text-anchor="middle"><text xml:space="preserve" x="0" y="26" stroke="none">Drama</text></g></g><g transform="translate(0 40)"><g transform="translate(-78.5859375 0)"><g fill="#ffffff" stroke="#000000" stroke-width="2"><rect x="0" y="0" width="157.171875" height="46" rx="23" ry="23"/><text xml:space="preserve" x="23" y="33.5" stroke="none" font-family="sans-serif" font-size="40" font-weight="normal" fill="#000000">Genre</text></g></g></g></g><g transform="translate(55 -14.399999999999999)"><g transform="translate(0 0)"><g transform="translate(0 0)" fill="white"><rect x="0" y="0" width="71.3671875" height="28.799999999999997" rx="0" ry="0" stroke="none"/><g font-family="sans-serif" font-size="12" font-weight="normal" fill="#000000" text-anchor="end"><text xml:space="preserve" x="64.69921875" y="10.7" stroke="none">name:</text><text xml:space="preserve" x="68.033203125" y="10.7" stroke="none" text-anchor="start"></text><text xml:space="preserve" x="64.69921875" y="25.099999999999998" stroke="none" text-anchor="end">description:</text><text xml:space="preserve" x="68.033203125" y="25.099999999999998" stroke="none" text-anchor="start"></text></g></g></g></g></g></g><g class="node"><g fill="#8DCC93" stroke="#000000" stroke-width="3"><circle cx="-7826.495179629786" cy="-1841.410077139356" r="51.5"/></g><g transform="translate(-7826.495179629786 -1841.410077139356)"><g transform="scale(0.37084210553931485) translate(0 -43)"><g transform="translate(0 0)"><g fill="#000000" font-family="sans-serif" font-size="30" font-weight="bold" text-anchor="middle"><text xml:space="preserve" x="0" y="26" stroke="none">Vince Gilligan</text></g></g><g transform="translate(0 40)"><g transform="translate(-69.6796875 0)"><g fill="#ffffff" stroke="#000000" stroke-width="2"><rect x="0" y="0" width="139.359375" height="46" rx="23" ry="23"/><text xml:space="preserve" x="23" y="33.5" stroke="none" font-family="sans-serif" font-size="40" font-weight="normal" fill="#000000">Actor</text></g></g></g></g><g transform="translate(-55 -50.399999999999984)"><g transform="translate(0 0)"><g transform="translate(-66.697265625 0)" fill="white"><rect x="0" y="0" width="66.697265625" height="100.79999999999998" rx="0" ry="0" stroke="none"/><g font-family="sans-serif" font-size="12" font-weight="normal" fill="#000000" text-anchor="end"><text xml:space="preserve" x="60.029296875" y="10.7" stroke="none">name:</text><text xml:space="preserve" x="63.36328125" y="10.7" stroke="none" text-anchor="start"></text><text xml:space="preserve" x="60.029296875" y="25.099999999999998" stroke="none" text-anchor="end">sex:</text><text xml:space="preserve" x="63.36328125" y="25.099999999999998" stroke="none" text-anchor="start"></text><text xml:space="preserve" x="60.029296875" y="39.5" stroke="none" text-anchor="end">born:</text><text xml:space="preserve" x="63.36328125" y="39.5" stroke="none" text-anchor="start"></text><text xml:space="preserve" x="60.029296875" y="53.89999999999999" stroke="none" text-anchor="end">birthPlace:</text><text xml:space="preserve" x="63.36328125" y="53.89999999999999" stroke="none" text-anchor="start"></text><text xml:space="preserve" x="60.029296875" y="68.3" stroke="none" text-anchor="end">region:</text><text xml:space="preserve" x="63.36328125" y="68.3" stroke="none" text-anchor="start"></text><text xml:space="preserve" x="60.029296875" y="82.69999999999999" stroke="none" text-anchor="end">bio:</text><text xml:space="preserve" x="63.36328125" y="82.69999999999999" stroke="none" text-anchor="start"></text><text xml:space="preserve" x="60.029296875" y="97.1" stroke="none" text-anchor="end">popularity:</text><text xml:space="preserve" x="63.36328125" y="97.1" stroke="none" text-anchor="start"></text></g></g></g></g></g></g><g class="node"><g fill="#109618" stroke="#000000" stroke-width="3"><circle cx="-7106.799756107939" cy="-1841.4101495181476" r="51.5"/></g><g transform="translate(-7106.799756107939 -1841.4101495181476)"><g transform="scale(0.37084210553931485) translate(0 -43)"><g transform="translate(0 0)"><g fill="#000000" font-family="sans-serif" font-size="30" font-weight="bold" text-anchor="middle"><text xml:space="preserve" x="0" y="26" stroke="none">Vince Gilligan</text></g></g><g transform="translate(0 40)"><g transform="translate(-93.009765625 0)"><g fill="#ffffff" stroke="#000000" stroke-width="2"><rect x="0" y="0" width="186.01953125" height="46" rx="23" ry="23"/><text xml:space="preserve" x="23" y="33.5" stroke="none" font-family="sans-serif" font-size="40" font-weight="normal" fill="#000000">Director</text></g></g></g></g><g transform="translate(55 -57.599999999999994)"><g transform="translate(0 0)"><g transform="translate(0 0)" fill="white"><rect x="0" y="0" width="66.697265625" height="115.19999999999999" rx="0" ry="0" stroke="none"/><g font-family="sans-serif" font-size="12" font-weight="normal" fill="#000000" text-anchor="end"><text xml:space="preserve" x="60.029296875" y="10.7" stroke="none">name:</text><text xml:space="preserve" x="63.36328125" y="10.7" stroke="none" text-anchor="start"></text><text xml:space="preserve" x="60.029296875" y="25.099999999999998" stroke="none" text-anchor="end">sex:</text><text xml:space="preserve" x="63.36328125" y="25.099999999999998" stroke="none" text-anchor="start"></text><text xml:space="preserve" x="60.029296875" y="39.5" stroke="none" text-anchor="end">born:</text><text xml:space="preserve" x="63.36328125" y="39.5" stroke="none" text-anchor="start"></text><text xml:space="preserve" x="60.029296875" y="53.89999999999999" stroke="none" text-anchor="end">birthPlace:</text><text xml:space="preserve" x="63.36328125" y="53.89999999999999" stroke="none" text-anchor="start"></text><text xml:space="preserve" x="60.029296875" y="68.3" stroke="none" text-anchor="end">region:</text><text xml:space="preserve" x="63.36328125" y="68.3" stroke="none" text-anchor="start"></text><text xml:space="preserve" x="60.029296875" y="82.69999999999999" stroke="none" text-anchor="end">style:</text><text xml:space="preserve" x="63.36328125" y="82.69999999999999" stroke="none" text-anchor="start"></text><text xml:space="preserve" x="60.029296875" y="97.1" stroke="none" text-anchor="end">bio:</text><text xml:space="preserve" x="63.36328125" y="97.1" stroke="none" text-anchor="start"></text><text xml:space="preserve" x="60.029296875" y="111.49999999999999" stroke="none" text-anchor="end">popularity:</text><text xml:space="preserve" x="63.36328125" y="111.49999999999999" stroke="none" text-anchor="start"></text></g></g></g></g></g></g><g class="node"><g fill="#8DCC93" stroke="#000000" stroke-width="3"><circle cx="-7826.495179629786" cy="-2183.5095541518604" r="51.5"/></g><g transform="translate(-7826.495179629786 -2183.5095541518604)"><g transform="scale(0.4415303837044094) translate(0 -43)"><g transform="translate(0 0)"><g fill="#000000" font-family="sans-serif" font-size="30" font-weight="bold" text-anchor="middle"><text xml:space="preserve" x="0" y="26" stroke="none">Tom Hanks</text></g></g><g transform="translate(0 40)"><g transform="translate(-69.6796875 0)"><g fill="#ffffff" stroke="#000000" stroke-width="2"><rect x="0" y="0" width="139.359375" height="46" rx="23" ry="23"/><text xml:space="preserve" x="23" y="33.5" stroke="none" font-family="sans-serif" font-size="40" font-weight="normal" fill="#000000">Actor</text></g></g></g></g><g transform="translate(-55 -50.399999999999984)"><g transform="translate(0 0)"><g transform="translate(-66.697265625 0)" fill="white"><rect x="0" y="0" width="66.697265625" height="100.79999999999998" rx="0" ry="0" stroke="none"/><g font-family="sans-serif" font-size="12" font-weight="normal" fill="#000000" text-anchor="end"><text xml:space="preserve" x="60.029296875" y="10.7" stroke="none">name:</text><text xml:space="preserve" x="63.36328125" y="10.7" stroke="none" text-anchor="start"></text><text xml:space="preserve" x="60.029296875" y="25.099999999999998" stroke="none" text-anchor="end">sex:</text><text xml:space="preserve" x="63.36328125" y="25.099999999999998" stroke="none" text-anchor="start"></text><text xml:space="preserve" x="60.029296875" y="39.5" stroke="none" text-anchor="end">born:</text><text xml:space="preserve" x="63.36328125" y="39.5" stroke="none" text-anchor="start"></text><text xml:space="preserve" x="60.029296875" y="53.89999999999999" stroke="none" text-anchor="end">birthPlace:</text><text xml:space="preserve" x="63.36328125" y="53.89999999999999" stroke="none" text-anchor="start"></text><text xml:space="preserve" x="60.029296875" y="68.3" stroke="none" text-anchor="end">region:</text><text xml:space="preserve" x="63.36328125" y="68.3" stroke="none" text-anchor="start"></text><text xml:space="preserve" x="60.029296875" y="82.69999999999999" stroke="none" text-anchor="end">bio:</text><text xml:space="preserve" x="63.36328125" y="82.69999999999999" stroke="none" text-anchor="start"></text><text xml:space="preserve" x="60.029296875" y="97.1" stroke="none" text-anchor="end">popularity:</text><text xml:space="preserve" x="63.36328125" y="97.1" stroke="none" text-anchor="start"></text></g></g></g></g></g></g><g class="node"><g fill="#109618" stroke="#000000" stroke-width="3"><circle cx="-7106.80644393452" cy="-2192.720401214626" r="51.5"/></g><g transform="translate(-7106.80644393452 -2192.720401214626)"><g transform="scale(0.35961951944692927) translate(0 -61)"><g transform="translate(0 0)"><g fill="#000000" font-family="sans-serif" font-size="30" font-weight="bold" text-anchor="middle"><text xml:space="preserve" x="0" y="26" stroke="none">Steven</text><text xml:space="preserve" x="0" y="62" stroke="none" text-anchor="middle">Spielberg</text></g></g><g transform="translate(0 76)"><g transform="translate(-93.009765625 0)"><g fill="#ffffff" stroke="#000000" stroke-width="2"><rect x="0" y="0" width="186.01953125" height="46" rx="23" ry="23"/><text xml:space="preserve" x="23" y="33.5" stroke="none" font-family="sans-serif" font-size="40" font-weight="normal" fill="#000000">Director</text></g></g></g></g><g transform="translate(55 -57.599999999999994)"><g transform="translate(0 0)"><g transform="translate(0 0)" fill="white"><rect x="0" y="0" width="66.697265625" height="115.19999999999999" rx="0" ry="0" stroke="none"/><g font-family="sans-serif" font-size="12" font-weight="normal" fill="#000000" text-anchor="end"><text xml:space="preserve" x="60.029296875" y="10.7" stroke="none">name:</text><text xml:space="preserve" x="63.36328125" y="10.7" stroke="none" text-anchor="start"></text><text xml:space="preserve" x="60.029296875" y="25.099999999999998" stroke="none" text-anchor="end">sex:</text><text xml:space="preserve" x="63.36328125" y="25.099999999999998" stroke="none" text-anchor="start"></text><text xml:space="preserve" x="60.029296875" y="39.5" stroke="none" text-anchor="end">born:</text><text xml:space="preserve" x="63.36328125" y="39.5" stroke="none" text-anchor="start"></text><text xml:space="preserve" x="60.029296875" y="53.89999999999999" stroke="none" text-anchor="end">birthPlace:</text><text xml:space="preserve" x="63.36328125" y="53.89999999999999" stroke="none" text-anchor="start"></text><text xml:space="preserve" x="60.029296875" y="68.3" stroke="none" text-anchor="end">region:</text><text xml:space="preserve" x="63.36328125" y="68.3" stroke="none" text-anchor="start"></text><text xml:space="preserve" x="60.029296875" y="82.69999999999999" stroke="none" text-anchor="end">style:</text><text xml:space="preserve" x="63.36328125" y="82.69999999999999" stroke="none" text-anchor="start"></text><text xml:space="preserve" x="60.029296875" y="97.1" stroke="none" text-anchor="end">bio:</text><text xml:space="preserve" x="63.36328125" y="97.1" stroke="none" text-anchor="start"></text><text xml:space="preserve" x="60.029296875" y="111.49999999999999" stroke="none" text-anchor="end">popularity:</text><text xml:space="preserve" x="63.36328125" y="111.49999999999999" stroke="none" text-anchor="start"></text></g></g></g></g></g></g></g></svg>